# xmcd
#
# Track frame offsets:
#	150
#	18208
#	39859
#	57933
#	76527
#	94136
#	116567
#	136787
#	154181
#	172519
#	185111
#	201469
#	212056
#	226236
#	242486
#	258766
#	279171
#
# Disc length: 4095 seconds
#
# Revision: 0
# Processed by: cddbd v1.5.2PL0 Copyright (c) Steve Scherf et al.
# Submitted via: audiograbber 1.83.01
#
DISCID=cd0ffd11
DTITLE=Young, Neil - Heart of Gold LIve 10CD03
DYEAR=1975
DGENRE=POP-ROCK-JAZZ
TTITLE0=Are you ready for the country
TTITLE1=Ain't that a lot of love
TTITLE2=Looking for a love
TTITLE3=Loving you (is sweeter than ever)
TTITLE4=I want you
TTITLE5=The weight
TTITLE6=Helpless
TTITLE7=Knockin' on the dragons door
TTITLE8=Tell me why
TTITLE9=Roll another number (for the road)
TTITLE10=Journey through the past
TTITLE11=The needle and the damage done
TTITLE12=Harvest
TTITLE13=Campaigner
TTITLE14=Pocahontas
TTITLE15=A man needs a maid
TTITLE16=Sugar mountain
EXTD=
EXTT0=
EXTT1=
EXTT2=
EXTT3=
EXTT4=
EXTT5=
EXTT6=
EXTT7=
EXTT8=
EXTT9=
EXTT10=
EXTT11=
EXTT12=
EXTT13=
EXTT14=
EXTT15=
EXTT16=
PLAYORDER=
